<svg xmlns="http://www.w3.org/2000/svg" viewBox="0 0 1200 1200">
  <g fill="#32CD32">
    <path d="M595.7,1199.9C492,1072.1,407.7,939.8,344.2,808.7C274.2,663.5,224.3,520.9,200.1,387.7C174.8,250.6,179.1,126.9,229.4,0
    c166.9,127.7,277.1,284.6,344.2,420.5C612,586.2,635.2,769,595.7,1199.9z M967.5,833.3C826.7,986.4,657.4,1090.9,399.3,1076.8
    c189.3-149.6,292.7-320.3,344.2-475.5c55.5-168.8,39.4-360.9,39.4-601.4c122.9,173.5,171.9,358.1,160.1,541.5
    C937.7,675.6,889.9,758.5,833.3,833.3z"/>
  </g>
</svg>
